name C:\Users\u0101727\Documents\MyRepositories\upper-imu-dc\Results\main_tracking\Case_31\FLX01_linearAccelerations_bodyFrame.mot
datacolumns 4
datarows 70
range 3.51000000 4.20000000
endheader 
time	radius_imu_x	radius_imu_y	radius_imu_z	
          3.51000000	         -0.66154351	         -9.68074408	          1.48797469	
          3.52000000	         -0.74536200	         -9.66827882	          1.51282606	
          3.53000000	         -0.80853503	         -9.65327155	          1.55677734	
          3.54000000	         -0.84634795	         -9.63438203	          1.61818771	
          3.55000000	         -0.85917397	         -9.61054441	          1.69422663	
          3.56000000	         -0.85376255	         -9.58255928	          1.78078114	
          3.57000000	         -0.84013672	         -9.55355089	          1.87292682	
          3.58000000	         -0.82798140	         -9.52788761	          1.96587275	
          3.59000000	         -0.82325799	         -9.50968592	          2.05524345	
          3.60000000	         -0.82752277	         -9.50157202	          2.13700750	
          3.61000000	         -0.83787278	         -9.50411653	          2.20743938	
          3.62000000	         -0.84651793	         -9.51586949	          2.26365361	
          3.63000000	         -0.84132847	         -9.53384774	          2.30428512	
          3.64000000	         -0.80887960	         -9.55430847	          2.32952401	
          3.65000000	         -0.73865403	         -9.57343609	          2.34053600	
          3.66000000	         -0.62595162	         -9.58771212	          2.33879814	
          3.67000000	         -0.47317857	         -9.59418196	          2.32548820	
          3.68000000	         -0.29060741	         -9.59094597	          2.30081147	
          3.69000000	         -0.09692144	         -9.57787159	          2.26339273	
          3.70000000	          0.08278644	         -9.55702058	          2.21049800	
          3.71000000	          0.22502324	         -9.53222459	          2.14001621	
          3.72000000	          0.31862642	         -9.50810569	          2.05314179	
          3.73000000	          0.36903637	         -9.48932701	          1.95539669	
          3.74000000	          0.39450276	         -9.48008470	          1.85543341	
          3.75000000	          0.41871098	         -9.48333117	          1.76283258	
          3.76000000	          0.46301136	         -9.49953677	          1.68601947	
          3.77000000	          0.54026386	         -9.52604542	          1.63077809	
          3.78000000	          0.65151934	         -9.55748743	          1.59958273	
          3.79000000	          0.78562753	         -9.58700434	          1.59174329	
          3.80000000	          0.92203212	         -9.60822394	          1.60392388	
          3.81000000	          1.03615223	         -9.61674617	          1.63126932	
          3.82000000	          1.10630466	         -9.61054954	          1.66882800	
          3.83000000	          1.11942241	         -9.58948166	          1.71297146	
          3.84000000	          1.07378810	         -9.55446505	          1.76226318	
          3.85000000	          0.97855967	         -9.50697981	          1.81741089	
          3.86000000	          0.85081235	         -9.44899128	          1.88037134	
          3.87000000	          0.71112095	         -9.38316800	          1.95302976	
          3.88000000	          0.57893565	         -9.31316036	          2.03598310	
          3.89000000	          0.46903613	         -9.24375898	          2.12778056	
          3.90000000	          0.38976086	         -9.18071418	          2.22471540	
          3.91000000	          0.34279105	         -9.12995455	          2.32118006	
          3.92000000	          0.32398334	         -9.09618534	          2.41050801	
          3.93000000	          0.32487899	         -9.08119109	          2.48605483	
          3.94000000	          0.33478542	         -9.08258609	          2.54212243	
          3.95000000	          0.34343513	         -9.09379615	          2.57454273	
          3.96000000	          0.34378829	         -9.10555005	          2.58093202	
          3.97000000	          0.33395403	         -9.10840191	          2.56072200	
          3.98000000	          0.31723631	         -9.09519900	          2.51506748	
          3.99000000	          0.30031108	         -9.06250599	          2.44667872	
          4.00000000	          0.29037545	         -9.01065983	          2.35968907	
          4.01000000	          0.29234609	         -8.94286932	          2.25959200	
          4.02000000	          0.30698596	         -8.86405094	          2.15315291	
          4.03000000	          0.33042526	         -8.77985266	          2.04811528	
          4.04000000	          0.35479957	         -8.69594345	          1.95255801	
          4.05000000	          0.36902073	         -8.61744125	          1.87399890	
          4.06000000	          0.35905123	         -8.54836312	          1.81856732	
          4.07000000	          0.30822956	         -8.49116228	          1.79048662	
          4.08000000	          0.19870810	         -8.44659582	          1.79183886	
          4.09000000	          0.01449515	         -8.41397246	          1.82246097	
          4.10000000	         -0.25491421	         -8.39147399	          1.88008626	
          4.11000000	         -0.61087904	         -8.37603539	          1.96040576	
          4.12000000	         -1.04430845	         -8.36323488	          2.05757154	
          4.13000000	         -1.53640088	         -8.34764400	          2.16514084	
          4.14000000	         -2.05936900	         -8.32362354	          2.27683109	
          4.15000000	         -2.57880797	         -8.28669730	          2.38756101	
          4.16000000	         -3.05674989	         -8.23463334	          2.49405539	
          4.17000000	         -3.45600843	         -8.16770893	          2.59509483	
          4.18000000	         -3.74557987	         -8.08816933	          2.69135877	
          4.19000000	         -3.90607937	         -7.99930984	          2.78483094	
          4.20000000	         -3.93387325	         -7.90479954	          2.87777359	
